<svg version="1.0" xmlns="http://www.w3.org/2000/svg" width="369" height="8052.18" viewBox="324.5 178.12 367.9866 8050.68" preserveAspectRatio="xMidYMid meet">

<g transform="translate(0,1000) scale(0.1,-0.1)" fill="currentColor" stroke="none" style="fill:rgb(0, 0, 0);stroke:none;color:rgb(0, 0, 0);stroke-width:1px;stroke-linecap:butt;stroke-linejoin:miter;opacity:1;font-family:&quot;Anthropic Sans&quot;, -apple-system, BlinkMacSystemFont, &quot;Segoe UI&quot;, sans-serif;font-size:16px;font-weight:400;text-anchor:start;dominant-baseline:auto">
<path d="M4960 8206 c-87 -24 -164 -70 -231 -136 -101 -101 -149 -217 -149&#10;-360 0 -144 48 -259 150 -360 102 -102 218 -150 360 -150 140 0 264 53 365&#10;156 194 198 194 508 0 709 -67 69 -165 125 -253 144 -68 14 -184 13 -242 -3z" style="fill:rgb(0, 0, 0);stroke:none;color:rgb(0, 0, 0);stroke-width:1px;stroke-linecap:butt;stroke-linejoin:miter;opacity:1;font-family:&quot;Anthropic Sans&quot;, -apple-system, BlinkMacSystemFont, &quot;Segoe UI&quot;, sans-serif;font-size:16px;font-weight:400;text-anchor:start;dominant-baseline:auto"/>
<path d="M3616 6859 c-109 -26 -239 -117 -307 -215 -97 -141 -111 -350 -34&#10;-510 61 -126 166 -217 305 -264 55 -19 82 -21 175 -18 102 3 115 6 185 39 147&#10;70 239 172 281 311 17 57 21 88 18 182 -4 109 -5 115 -46 198 -68 136 -202&#10;245 -343 277 -54 13 -180 12 -234 0z" style="fill:rgb(0, 0, 0);stroke:none;color:rgb(0, 0, 0);stroke-width:1px;stroke-linecap:butt;stroke-linejoin:miter;opacity:1;font-family:&quot;Anthropic Sans&quot;, -apple-system, BlinkMacSystemFont, &quot;Segoe UI&quot;, sans-serif;font-size:16px;font-weight:400;text-anchor:start;dominant-baseline:auto"/>
<path d="M4963 6855 c-228 -64 -383 -263 -383 -493 0 -149 45 -259 149 -363&#10;105 -105 212 -149 362 -149 188 0 345 90 443 254 70 117 85 297 35 434 -48&#10;130 -170 250 -306 302 -75 29 -225 37 -300 15z" style="fill:rgb(0, 0, 0);stroke:none;color:rgb(0, 0, 0);stroke-width:1px;stroke-linecap:butt;stroke-linejoin:miter;opacity:1;font-family:&quot;Anthropic Sans&quot;, -apple-system, BlinkMacSystemFont, &quot;Segoe UI&quot;, sans-serif;font-size:16px;font-weight:400;text-anchor:start;dominant-baseline:auto"/>
<path d="M4940 5491 c-91 -29 -142 -61 -211 -130 -103 -103 -149 -214 -149&#10;-361 0 -328 308 -570 629 -495 279 66 450 358 373 636 -46 164 -177 299 -340&#10;349 -83 26 -224 26 -302 1z" style="fill:rgb(0, 0, 0);stroke:none;color:rgb(0, 0, 0);stroke-width:1px;stroke-linecap:butt;stroke-linejoin:miter;opacity:1;font-family:&quot;Anthropic Sans&quot;, -apple-system, BlinkMacSystemFont, &quot;Segoe UI&quot;, sans-serif;font-size:16px;font-weight:400;text-anchor:start;dominant-baseline:auto"/>
<path d="M4980 4149 c-81 -16 -188 -76 -255 -145 -97 -100 -145 -215 -145&#10;-354 0 -147 46 -258 149 -361 105 -105 212 -149 362 -149 455 0 680 547 358&#10;869 -121 122 -296 174 -469 140z" style="fill:rgb(0, 0, 0);stroke:none;color:rgb(0, 0, 0);stroke-width:1px;stroke-linecap:butt;stroke-linejoin:miter;opacity:1;font-family:&quot;Anthropic Sans&quot;, -apple-system, BlinkMacSystemFont, &quot;Segoe UI&quot;, sans-serif;font-size:16px;font-weight:400;text-anchor:start;dominant-baseline:auto"/>
<path d="M3601 2784 c-116 -31 -242 -125 -306 -229 -65 -105 -87 -283 -50&#10;-410 61 -215 263 -365 490 -365 134 0 244 43 343 135 118 109 162 211 162 376&#10;0 160 -46 267 -159 371 -103 96 -213 139 -351 137 -41 0 -99 -7 -129 -15z" style="fill:rgb(0, 0, 0);stroke:none;color:rgb(0, 0, 0);stroke-width:1px;stroke-linecap:butt;stroke-linejoin:miter;opacity:1;font-family:&quot;Anthropic Sans&quot;, -apple-system, BlinkMacSystemFont, &quot;Segoe UI&quot;, sans-serif;font-size:16px;font-weight:400;text-anchor:start;dominant-baseline:auto"/>
<path d="M4959 2785 c-85 -23 -162 -69 -229 -135 -102 -101 -150 -216 -150&#10;-360 0 -147 57 -278 162 -374 205 -187 515 -181 709 13 157 157 193 397 91&#10;600 -56 112 -196 223 -326 257 -63 17 -195 17 -257 -1z" style="fill:rgb(0, 0, 0);stroke:none;color:rgb(0, 0, 0);stroke-width:1px;stroke-linecap:butt;stroke-linejoin:miter;opacity:1;font-family:&quot;Anthropic Sans&quot;, -apple-system, BlinkMacSystemFont, &quot;Segoe UI&quot;, sans-serif;font-size:16px;font-weight:400;text-anchor:start;dominant-baseline:auto"/>
<path d="M6311 2784 c-76 -20 -146 -60 -212 -122 -113 -104 -159 -211 -159&#10;-371 0 -189 74 -329 228 -431 103 -68 259 -97 385 -71 130 28 271 129 336 245&#10;86 151 86 361 1 512 -38 65 -141 164 -208 198 -109 55 -256 71 -371 40z" style="fill:rgb(0, 0, 0);stroke:none;color:rgb(0, 0, 0);stroke-width:1px;stroke-linecap:butt;stroke-linejoin:miter;opacity:1;font-family:&quot;Anthropic Sans&quot;, -apple-system, BlinkMacSystemFont, &quot;Segoe UI&quot;, sans-serif;font-size:16px;font-weight:400;text-anchor:start;dominant-baseline:auto"/>
</g>
</svg>